<?xml version="1.0" standalone="no"?>
<!DOCTYPE svg PUBLIC "-//W3C//DTD SVG 20010904//EN"
 "http://www.w3.org/TR/2001/REC-SVG-20010904/DTD/svg10.dtd">
<svg version="1.0" xmlns="http://www.w3.org/2000/svg"
 width="36.000000pt" height="38.000000pt" viewBox="0 0 36.000000 38.000000"
 preserveAspectRatio="xMidYMid meet">

<g transform="translate(0.000000,38.000000) scale(0.100000,-0.100000)"
fill="#000000" stroke="none">
<path d="M41 346 c-35 -19 -40 -37 -40 -157 -1 -93 2 -110 20 -133 20 -26 22
-26 148 -26 166 0 161 -5 161 163 0 124 0 126 -26 146 -23 18 -40 21 -133 21
-70 -1 -114 -5 -130 -14z m215 -145 c13 -35 24 -67 24 -72 0 -18 -22 -9 -27
11 -7 28 -58 27 -73 0 -18 -34 -30 -12 -15 29 21 61 45 103 57 99 6 -2 21 -32
34 -67z m-129 -10 c17 -50 13 -57 -17 -39 -18 10 -24 10 -27 1 -4 -11 -33 -19
-33 -9 0 17 44 96 52 94 6 -2 17 -23 25 -47z"/>
<path d="M206 205 c-3 -9 0 -15 9 -15 16 0 20 16 6 24 -5 3 -11 -1 -15 -9z"/>
</g>
</svg>
